<svg xmlns="http://www.w3.org/2000/svg" xmlns:xlink="http://www.w3.org/1999/xlink" fill="none" version="1.1" width="48" height="48.053955078125" viewBox="0 0 48 48.053955078125"><defs><linearGradient x1="0.5048831105232239" y1="0" x2="0" y2="1" id="master_svg0_137_782"><stop offset="0%" stop-color="#106FEF" stop-opacity="1"/><stop offset="67.85714030265808%" stop-color="#1FBCF1" stop-opacity="1"/></linearGradient><linearGradient x1="0.595470130443573" y1="0" x2="0" y2="1" id="master_svg1_137_766"><stop offset="0%" stop-color="#1FBCF1" stop-opacity="1"/><stop offset="60.00000238418579%" stop-color="#106FEF" stop-opacity="1"/></linearGradient><linearGradient x1="0.21318548917770386" y1="0" x2="1.0808318853378296" y2="0.8562071323394775" id="master_svg2_137_0080"><stop offset="0%" stop-color="#F06814" stop-opacity="1"/><stop offset="100%" stop-color="#FDCD15" stop-opacity="1"/></linearGradient></defs><g><g transform="matrix(-1,0,0,-1,43.660518646240234,56.57323455810547)"><path d="M21.830259323120117,42.05061727905273L21.830259323120117,56.573217279052734L37.66765932312012,44.507117279052736C44.47825932312011,39.07381727905273,44.11995932312011,31.429567279052733,43.08945932312012,28.286617279052734L23.685099323120117,28.286617279052734L23.685099323120117,36.59556727905273L31.580029323120115,36.59556727905273C29.183009323120118,40.555017279052734,24.081419323120116,41.88201727905273,21.830259323120117,42.05061727905273Z" fill="url(#master_svg0_137_782)" fill-opacity="1"/></g><g><path d="M26.169740676879883,33.53137976074218L26.169740676879883,48.05397976074219L42.007140676879885,35.98787976074219C48.81774067687988,30.554579760742186,48.45944067687988,22.910329760742187,47.42894067687988,19.767379760742188L28.024580676879882,19.767379760742188L28.024580676879882,28.076329760742187L35.91951067687988,28.076329760742187C33.52249067687988,32.03577976074219,28.42090067687988,33.362779760742185,26.169740676879883,33.53137976074218Z" fill="url(#master_svg1_137_766)" fill-opacity="1"/></g><g><path d="M21.83025626296997,37.944226119995115L21.83025626296997,45.30922611999512Q18.874256262969972,44.82962611999512,16.07435626296997,43.64602611999511Q11.53102626296997,41.72532611999512,8.029306262969971,38.22530611999512Q4.7262562629699705,34.923926119995116,2.8290539528199705,30.696226119995117L11.10820626296997,30.696226119995117Q12.00981626296997,31.980766119995117,13.14335626296997,33.113776119995116Q15.64765626296997,35.616776119995116,18.89175626296997,36.988236119995115Q20.33115626296997,37.59672611999512,21.83025626296997,37.944226119995115Z" fill-rule="evenodd" fill="#106FEF" fill-opacity="1"/></g><g transform="matrix(-1,0,0,-1,90.34188842773438,34.715572357177734)"><path d="M64.17214421386718,24.60578617858887L64.17214421386718,31.970786178588867Q61.21614421386719,31.49118617858887,58.41624421386719,30.307586178588867Q53.87291421386719,28.386886178588867,50.371194213867184,24.886866178588868Q47.068144213867185,21.585486178588866,45.170941903717186,17.357786178588867L53.45009421386719,17.357786178588867Q54.35170421386719,18.642326178588867,55.48524421386719,19.775336178588866Q57.98954421386719,22.278336178588866,61.23364421386719,23.64979617858887Q62.673044213867186,24.258286178588868,64.17214421386718,24.60578617858887Z" fill-rule="evenodd" fill="url(#master_svg2_137_0080)" fill-opacity="1"/></g></g></svg>